<svg xmlns="http://www.w3.org/2000/svg" viewBox="0 0 472.96 161.77"><defs><style>.cls-1{fill:#fff;}.cls-2{fill:#698583;}</style></defs><g id="Camada_2" data-name="Camada 2"><g id="Camada_1_Imagem" data-name="Camada 1 Imagem"><path class="cls-1" d="M22.33,100.1c-.22,1.76-.42,3.25-.6,4.75a7.89,7.89,0,0,1-6.64,6.61,24.9,24.9,0,0,1-8.35-.18,7.85,7.85,0,0,1-6.27-6.19A25.28,25.28,0,0,1,0,98.89Q0,57.28,0,15.65C0,11.82,0,8,0,4.14,0,2.17.13,2,1.93,1.36A18.44,18.44,0,0,1,9.17,0c6.58.31,10.6,3.82,12.34,9.78a29,29,0,0,1,1,8.31q0,11.26,0,22.55A4.89,4.89,0,0,0,22.73,43a2.9,2.9,0,0,0,1.44-1.15c5.83-7,13.38-10.32,22.42-10.47a36.09,36.09,0,0,1,13.22,1.85A32.67,32.67,0,0,1,71.7,40.58a37.28,37.28,0,0,1,9.41,15.57c3.11,9.65,3,19.37.81,29.09A36,36,0,0,1,76,98.5,34.13,34.13,0,0,1,62.5,109.93,35.25,35.25,0,0,1,38,111.8a25,25,0,0,1-13.86-9.66A8.22,8.22,0,0,0,22.33,100.1Zm.18-29.38h.07a74.33,74.33,0,0,0,0,7.9,17.46,17.46,0,0,0,10.3,14.49,20.76,20.76,0,0,0,11.93,1.72C51.35,94,56,90.57,59,84.78A26,26,0,0,0,61.84,74a27,27,0,0,0-3.49-15.65A17,17,0,0,0,51,51.39c-7.71-3.55-18.73-2.51-24.92,5-2.15,2.6-4.05,5.31-3.57,9A40.26,40.26,0,0,1,22.51,70.72Z"/><path class="cls-1" d="M383.06,99.81a36.47,36.47,0,0,1-7.88,7.49,31.44,31.44,0,0,1-11,4.59,37.26,37.26,0,0,1-18.73-.67c-9.17-2.89-15.21-9.83-15.41-19.9-.11-5.2.94-10,4.35-14.09a20.14,20.14,0,0,1,4.22-3.84,40.08,40.08,0,0,1,9.41-4.6c6.65-2.31,13.52-3.11,20.45-3.69a129.64,129.64,0,0,1,13.73-.78,12.7,12.7,0,0,0-.52-6.43c-1.74-5.62-5.86-8.6-11.53-9.41a24.67,24.67,0,0,0-9.06.28c-5.43,1.26-9.93,3.94-12.64,9a3.48,3.48,0,0,1-3.8,2.13c-3-.26-5.82-.67-8.39-2.42a7,7,0,0,1-3.2-5.09,12.83,12.83,0,0,1,3.13-10.43,26.18,26.18,0,0,1,10.06-7.06c7.57-3.16,15.52-3.47,23.53-3.42a49.29,49.29,0,0,1,13.52,1.68c5.36,1.54,10.25,4,14.06,8.18a27.58,27.58,0,0,1,4.84,7.9c2.08,4.92,2.42,10.06,2.43,15.26q0,21.6,0,43.18c0,2.62-.23,2.94-2.8,3.67a18.59,18.59,0,0,1-9.48.38c-4.49-1-7-4.12-8.44-8.3C383.59,102.35,383.41,101.26,383.06,99.81Zm-.69-24c-8.4-.08-16.47.45-24.24,3.31a11.3,11.3,0,0,0-4.88,3.34c-3.45,4.24-3.08,12.81,4.32,14.73,6.16,1.6,12.16,1.14,17.68-2.52a15.39,15.39,0,0,0,7.07-11.13A59.9,59.9,0,0,0,382.37,75.81Z"/><path class="cls-1" d="M115.77,89.82a15.91,15.91,0,0,0,4.88,3.53A20,20,0,0,0,138,94.1a30.86,30.86,0,0,0,13.15-10.74c2.43-3.35,3.38-7.18,3.94-11.16a11.66,11.66,0,0,0-.43-4.7c4.67-3.81,9-4.28,12.91-1.6a9.84,9.84,0,0,1,4.17,7.75,21.88,21.88,0,0,1-1.55,9.61A42.17,42.17,0,0,1,162.26,96a58.11,58.11,0,0,1-8,7.51,63.13,63.13,0,0,1-10.49,6.6,34.49,34.49,0,0,1-9.54,3A34.53,34.53,0,0,1,129,114a36.67,36.67,0,0,1-21-5.61A47.26,47.26,0,0,1,94.28,95a44.39,44.39,0,0,1-7.13-16.83,36.49,36.49,0,0,1,3-22.91,42.55,42.55,0,0,1,15.49-17.5,37.87,37.87,0,0,1,19.24-6.54,33.94,33.94,0,0,1,16.5,3.18A43.51,43.51,0,0,1,149.18,39a43,43,0,0,1,9.18,9.66c1.38,2,1,4-.85,5.78-3.46,3.31-7.31,6.16-11,9.25Q140.37,69,134.11,74.14c-3.26,2.69-6.59,5.28-9.87,8-2.65,2.17-5.26,4.38-7.89,6.57A1.34,1.34,0,0,0,115.77,89.82Zm21.35-34.35c-1.16-1.07-2.07-2-3-2.79a19.07,19.07,0,0,0-7.38-3.78,14.92,14.92,0,0,0-10.9,1.19C109.52,53.22,105.49,58,104.38,65a19.4,19.4,0,0,0,3.41,14.72Z"/><path class="cls-1" d="M199.74,44.64a6.54,6.54,0,0,0,1.73-1.81c5.74-7.23,13.12-11.2,22.44-11.39,4.51-.1,9,.16,13.21,1.81a23.77,23.77,0,0,1,12.09,10,35,35,0,0,1,5,18c.15,13.43.08,26.86.05,40.28a10.65,10.65,0,0,1-1.76,6.35,7.94,7.94,0,0,1-5,3.4,23.16,23.16,0,0,1-8.82.06,7.53,7.53,0,0,1-6.45-6.2,21.75,21.75,0,0,1-.44-4.76c0-10.79,0-21.58,0-32.37a27.43,27.43,0,0,0-1.45-8.92C228.71,54,225.17,51,220,50.43c-8.29-1-14.7,2-19.29,9.25a4.76,4.76,0,0,0-.45,2.79q0,19.17,0,38.36a15.35,15.35,0,0,1-1,6.1,7.22,7.22,0,0,1-4.92,4.2,19.93,19.93,0,0,1-10.2.06,7.67,7.67,0,0,1-6-6.72,35,35,0,0,1-.36-5q0-31.17,0-62.34c0-2.87.25-3.23,3-4a18.23,18.23,0,0,1,9.24-.42c4.34,1,7,3.87,8.63,7.84A38,38,0,0,1,199.74,44.64Z"/><path class="cls-1" d="M276.94,50.69c-1.78,0-3.29.05-4.78,0-2.53-.11-4.91-.66-6.67-2.71-.15-.18-.4-.3-.5-.51a12,12,0,0,1-.4-10.2c1.07-2.7,3.63-4,6.51-4.17,1.82-.13,3.65,0,5.26,0a2.31,2.31,0,0,0,.57-2c0-2.72,0-5.43,0-8.15a14.85,14.85,0,0,1,.74-4.22c1.22-4.23,4.3-6,8.33-6.35,3.2-.31,6.39-.27,9.3,1.51a5.45,5.45,0,0,1,2.26,2.37,16.16,16.16,0,0,1,1.65,7.16c0,3.11,0,6.22,0,9.17a2.91,2.91,0,0,0,2.27.49c4.08,0,8.16,0,12.23,0a8.75,8.75,0,0,1,5.76,2,5.48,5.48,0,0,1,2,3.39,19,19,0,0,1,0,6.69c-.51,2.72-2.37,4.27-4.85,5.09a14.48,14.48,0,0,1-4.74.57q-5.28,0-10.56,0A5.28,5.28,0,0,0,299,51a3.82,3.82,0,0,0-.3,2.33q0,14.75,0,29.5a35.26,35.26,0,0,0,.82,6.65c1,5.1,5.87,6.3,9.34,5.72,3-.49,5.69-1.61,7.49-4.25.74-1.09,1.55-.84,2.44-.21a8.45,8.45,0,0,1,3.62,5.73c.95,6.1-.91,9.3-5.37,12.59-5.7,4.22-12.32,4.45-19,3.92a28.68,28.68,0,0,1-5-.82,19,19,0,0,1-14.22-13.46A41.46,41.46,0,0,1,276.9,85.9c.1-10.71,0-21.42,0-32.14Z"/></g><g id="Camada_3_Imagem" data-name="Camada 3 Imagem"><path class="cls-2" d="M421.31,128.48a5.1,5.1,0,0,0-2.58-.29q-9.12,0-18.23.12c-1.89,0-3.68-.19-4.83-2a6.56,6.56,0,0,1-.41-6.19c.84-2.15,2.73-2.78,4.87-2.78,5.12,0,10.24.07,15.35.1H421c.35-.73-.28-1-.64-1.34l-9.28-9a14.83,14.83,0,0,1-1.18-1.2,4.6,4.6,0,0,1,.44-6.81c2.09-2,4.49-2.06,6.6,0,3,2.9,5.81,6,8.72,8.92a5.73,5.73,0,0,0,2.28,1.83c.61-.66.34-1.49.34-2.23,0-5.83-.07-11.67-.1-17.51a11.14,11.14,0,0,1,.18-2.38,4.57,4.57,0,0,1,4.57-3.81c.4,0,.8,0,1.2,0,3.33,0,5.21,1.82,5.26,5.19.06,4.16,0,8.32,0,12.48,0,2.71,0,5.41,0,8.19,1.17.08,1.62-.77,2.19-1.35,3-3,5.86-6.13,8.88-9.09,2.83-2.78,6.55-2,8.23,1.56.93,2,.3,3.6-1,5.06-1.05,1.19-2.26,2.25-3.41,3.35-2.46,2.38-4.94,4.75-7.4,7.14a.83.83,0,0,0-.31,1c1.73,0,3.53,0,5.33,0,5.12,0,10.24-.09,15.36-.11,2.19,0,4.16.51,5.12,2.78a6.43,6.43,0,0,1-.29,6,3.81,3.81,0,0,1-3,2.07c-1,.07-1.92.14-2.87.13-5.76,0-11.52-.07-17.28-.1a5.52,5.52,0,0,0-2.38.18c-.1.78.57,1.08,1,1.49,3,2.91,6,5.78,9,8.67a17.29,17.29,0,0,1,1.34,1.37,4.48,4.48,0,0,1-.33,6.63,4.63,4.63,0,0,1-6.67.2c-2.87-2.77-5.58-5.71-8.37-8.56a13.38,13.38,0,0,0-2.65-2.48c-.78.65-.46,1.5-.45,2.22,0,6,.06,12,.1,18a6.53,6.53,0,0,1-.71,3.47,4.19,4.19,0,0,1-3.86,2.39H433.4c-3.19,0-5-1.76-5.22-4.95,0-.56,0-1.12,0-1.68q.06-8.52.1-17a4.36,4.36,0,0,0-.24-2.35,4.15,4.15,0,0,0-1.91,1.49c-2.78,2.87-5.55,5.75-8.33,8.61a6.61,6.61,0,0,1-2.46,1.86,4.92,4.92,0,0,1-5.73-1.83,4.45,4.45,0,0,1,.21-5.92c2.48-2.61,5.13-5.05,7.68-7.57C418.74,131.16,419.93,129.9,421.31,128.48Z"/></g></g></svg>