<svg id="Camada_1" data-name="Camada 1" xmlns="http://www.w3.org/2000/svg" viewBox="0 0 72.22 26.05"><defs><style>.cls-1{fill:#fff;}.cls-2{fill:#ccc;}</style></defs><path class="cls-1" d="M4.2,32.18c0,.27-.07.51-.09.73A1.37,1.37,0,0,1,3.37,34a1.59,1.59,0,0,1-.78.16c-.35,0-.71,0-1.06,0a1.29,1.29,0,0,1-.92-.65,1.08,1.08,0,0,1-.21-.74,11.81,11.81,0,0,0,0-1.19V15.47a2.59,2.59,0,0,1,3,.11,2.17,2.17,0,0,1,.7,1.17,6,6,0,0,1,.17,1.58c0,1.35,0,2.69,0,4a.27.27,0,0,0,.21-.11,4.73,4.73,0,0,1,1.69-1.35,2.72,2.72,0,0,1,.65-.25,6.59,6.59,0,0,1,3.93.15,5.66,5.66,0,0,1,2.42,1.75,6.81,6.81,0,0,1,1.25,2.51,8.65,8.65,0,0,1,.25,3,7.81,7.81,0,0,1-.22,1.45,7.41,7.41,0,0,1-1.29,2.72,5.72,5.72,0,0,1-1.7,1.48A5.22,5.22,0,0,1,9,34.41a11.37,11.37,0,0,1-1.43,0,4.36,4.36,0,0,1-1.17-.34,4.31,4.31,0,0,1-1.86-1.44C4.42,32.49,4.39,32.31,4.2,32.18Zm0-5c0,.31,0,.63,0,.94a3.06,3.06,0,0,0,.37,1.57A2.87,2.87,0,0,0,6,31a3.52,3.52,0,0,0,2.07.31,3,3,0,0,0,2.4-1.69A4.5,4.5,0,0,0,11,28a4.63,4.63,0,0,0-.63-3,2.78,2.78,0,0,0-1.21-1.12,3.66,3.66,0,0,0-4.29.88,2,2,0,0,0-.59,1.51A6.74,6.74,0,0,1,4.24,27.15Z" transform="translate(-0.39 -15.06)"/><path class="cls-1" d="M65.81,26.06a2.78,2.78,0,0,0-.75-2,3,3,0,0,0-1-.53A3.25,3.25,0,0,0,62,23.45a2.75,2.75,0,0,0-1.4.73,4.27,4.27,0,0,0-.66.86.46.46,0,0,1-.46.27,3.74,3.74,0,0,1-1.06-.1,1.73,1.73,0,0,1-1-.89,1.34,1.34,0,0,1,0-.45,3.21,3.21,0,0,1,.08-.87,2.54,2.54,0,0,1,1.15-1.44A5.77,5.77,0,0,1,61,20.63a14.56,14.56,0,0,1,3.3-.16,7.14,7.14,0,0,1,1.95.35,4.69,4.69,0,0,1,2.55,1.89,4,4,0,0,1,.23.46,5,5,0,0,1,.55,2.14c0,1.19,0,2.38,0,3.57v4.63a.57.57,0,0,1-.57.64,6.49,6.49,0,0,1-1.46.1,1.67,1.67,0,0,1-1.19-.74A2,2,0,0,1,66,32.37a1.48,1.48,0,0,0,0-.19c-.21,0-.23.22-.33.32a10.11,10.11,0,0,1-1,.91,4.64,4.64,0,0,1-1.2.64,4.94,4.94,0,0,1-1.54.28c-.53,0-1.06,0-1.59,0A3.68,3.68,0,0,1,59.08,34a4.29,4.29,0,0,1-1.21-.77,3.1,3.1,0,0,1-1-1.76,7.39,7.39,0,0,1,0-1.88,2.61,2.61,0,0,1,.59-1.23,4.4,4.4,0,0,1,2-1.38,11.64,11.64,0,0,1,3.09-.69C63.61,26.19,64.68,26.07,65.81,26.06Zm0,2a12.2,12.2,0,0,0-4,.48,2.11,2.11,0,0,0-1,.65,1.57,1.57,0,0,0,.72,2.52,3.59,3.59,0,0,0,3-.42,2.69,2.69,0,0,0,1.23-1.93A7,7,0,0,0,65.79,28Z" transform="translate(-0.39 -15.06)"/><path class="cls-1" d="M20.16,30.39a1.91,1.91,0,0,0,.72.56,3.43,3.43,0,0,0,2.68.36A4.91,4.91,0,0,0,26.44,29a3.23,3.23,0,0,0,.4-2.42,2.31,2.31,0,0,1,1.05-.49,1.56,1.56,0,0,1,1.54.68,2.37,2.37,0,0,1,.21,2.07,6.65,6.65,0,0,1-1.27,2.37,15.58,15.58,0,0,1-1.27,1.3,12.52,12.52,0,0,1-1,.76,8.07,8.07,0,0,1-1.58.86,6.16,6.16,0,0,1-1.42.36,5.57,5.57,0,0,1-1.63.07,5.22,5.22,0,0,1-1.55-.36,7.17,7.17,0,0,1-2.36-1.55,9.34,9.34,0,0,1-1.07-1.27,8.18,8.18,0,0,1-.85-1.6,6.68,6.68,0,0,1-.44-2.83c0-.32.07-.65.06-1a2,2,0,0,1,.19-.59,6.89,6.89,0,0,1,.85-1.8,7.8,7.8,0,0,1,2.06-2,6.52,6.52,0,0,1,4.75-1.05,6.25,6.25,0,0,1,2,.72,7.12,7.12,0,0,1,1.69,1.36c.21.23.4.47.6.71a.74.74,0,0,1-.06,1.13C26.7,25,26,25.48,25.4,26l-1.46,1.23-1.71,1.4c-.49.4-1,.82-1.46,1.23A2.45,2.45,0,0,0,20.16,30.39Zm3.68-5.83c-.2-.18-.36-.36-.55-.51a3.48,3.48,0,0,0-1.23-.62,2.64,2.64,0,0,0-1.83.19,3.33,3.33,0,0,0-1.8,1.85,3.43,3.43,0,0,0,.38,3.24Z" transform="translate(-0.39 -15.06)"/><path class="cls-1" d="M34.56,22.65c.12-.13.21-.22.3-.33a4.57,4.57,0,0,1,1.47-1.26A5.66,5.66,0,0,1,40,20.54a4.31,4.31,0,0,1,1.71.63A3.82,3.82,0,0,1,43,22.46a6.73,6.73,0,0,1,.89,3.61v6.2a2.33,2.33,0,0,1-.22,1.1,1.52,1.52,0,0,1-1.43.8,8.21,8.21,0,0,1-1.11,0,1.23,1.23,0,0,1-.9-.67,2.26,2.26,0,0,1-.19-1.2c0-1.93,0-3.86,0-5.79a3.78,3.78,0,0,0-.5-1.79,2,2,0,0,0-1.14-.89,2.88,2.88,0,0,0-1.51-.09,3.12,3.12,0,0,0-2,1.29,1.26,1.26,0,0,0-.25.83c0,2.15,0,4.29,0,6.44a4,4,0,0,1-.08.77,1.37,1.37,0,0,1-1.48,1.1c-.38,0-.77,0-1.15,0a.37.37,0,0,1-.15,0,1.4,1.4,0,0,1-.93-1.2c0-.41-.06-.81-.06-1.23V21.38c0-.52,0-.51.52-.66a3.1,3.1,0,0,1,1.76,0,2.19,2.19,0,0,1,1.4,1.78S34.51,22.56,34.56,22.65Z" transform="translate(-0.39 -15.06)"/><path class="cls-1" d="M47.75,23.74H46.6a1.15,1.15,0,0,1-1.07-1,7,7,0,0,1,0-1,1,1,0,0,1,.65-.86,1.61,1.61,0,0,1,.75-.16h.82c0-.41,0-.8,0-1.19a4.47,4.47,0,0,1,.17-1.5.94.94,0,0,1,.45-.58,2.69,2.69,0,0,1,2.65.07.55.55,0,0,1,.2.25,2.39,2.39,0,0,1,.34,1.28v1.66h2.16a2.48,2.48,0,0,1,.81.08,1.14,1.14,0,0,1,.85.88,3.43,3.43,0,0,1,0,1.06,1.23,1.23,0,0,1-.7.89,2.07,2.07,0,0,1-.87.11H51.92a1.14,1.14,0,0,0-.41,0,.48.48,0,0,0,0,.31c0,1.73,0,3.45,0,5.17a3.72,3.72,0,0,0,.27,1.47,1,1,0,0,0,.61.55,1.83,1.83,0,0,0,1.56-.18,1.91,1.91,0,0,0,.5-.44c.18-.21.26-.22.48-.07a1.55,1.55,0,0,1,.66,1.2,2,2,0,0,1-1,2,4.59,4.59,0,0,1-3.23.63c-.3,0-.61-.06-.91-.11a2.91,2.91,0,0,1-1.74-1.09,3.34,3.34,0,0,1-.77-1.73c-.33-2.44-.07-4.89-.16-7.33Z" transform="translate(-0.39 -15.06)"/><path class="cls-2" d="M67.78,34.49l0-.64c0-.47,0-1,0-1.43a.69.69,0,1,1,1.38,0c0,.56,0,1.12,0,1.68a1.1,1.1,0,0,0,0,.44c.18,0,.24-.16.33-.24.25-.24.48-.5.74-.72a.67.67,0,0,1,.93,0,.68.68,0,0,1,0,1c-.27.31-.57.59-.86.88a1.18,1.18,0,0,0-.26.32.55.55,0,0,0,.37.06h1.31a1.08,1.08,0,0,1,.36.05.7.7,0,0,1,.46.67.67.67,0,0,1-.5.62,1.57,1.57,0,0,1-.48,0H70.08c-.06.13,0,.18.1.25l.74.88a1.57,1.57,0,0,1,.19.26.67.67,0,0,1-1,.86,4,4,0,0,1-.55-.61,1.89,1.89,0,0,0-.37-.38.55.55,0,0,0-.08.42c0,.41,0,.82,0,1.23,0,.09,0,.19,0,.29a.7.7,0,0,1-.69.71.69.69,0,0,1-.69-.75c0-.58,0-1.15,0-1.72,0-.14,0-.28,0-.41s-.18.06-.24.12c-.23.23-.45.47-.69.7a.72.72,0,0,1-1,.05.71.71,0,0,1,0-1c.13-.14.27-.27.41-.4l.38-.4c-.06-.18-.19-.13-.28-.13l-1.6,0a1.71,1.71,0,0,1-.45,0,.68.68,0,0,1,.07-1.33,2.3,2.3,0,0,1,.37,0h2.14c.06-.11-.06-.16-.11-.22l-.82-1a1.92,1.92,0,0,1-.18-.22.68.68,0,0,1,1-.88c.28.29.54.62.8.93C67.61,34.4,67.65,34.49,67.78,34.49Z" transform="translate(-0.39 -15.06)"/></svg>