<svg id="Camada_1" data-name="Camada 1" xmlns="http://www.w3.org/2000/svg" viewBox="0 0 72.22 26.12"><defs><style>.cls-1{fill:#020202;}.cls-2{fill:#343333;}</style></defs><path class="cls-1" d="M4.2,30.33c0,.28-.07.52-.09.74a1.37,1.37,0,0,1-.74,1.1,1.58,1.58,0,0,1-.78.15,9.37,9.37,0,0,1-1.06,0,1.25,1.25,0,0,1-.92-.64,1.08,1.08,0,0,1-.21-.74,11.78,11.78,0,0,0,0-1.19V13.63a2.59,2.59,0,0,1,3,.11,2.17,2.17,0,0,1,.7,1.17,6,6,0,0,1,.17,1.58c0,1.35,0,2.69,0,4a.25.25,0,0,0,.21-.12,4.81,4.81,0,0,1,1.69-1.34,2.76,2.76,0,0,1,.65-.26,6.75,6.75,0,0,1,3.93.15,5.68,5.68,0,0,1,2.42,1.76,6.81,6.81,0,0,1,1.25,2.51,8.65,8.65,0,0,1,.25,3,7.94,7.94,0,0,1-.22,1.45,7.41,7.41,0,0,1-1.29,2.72,5.72,5.72,0,0,1-1.7,1.48A5.21,5.21,0,0,1,9,32.56a9.75,9.75,0,0,1-1.43,0,4,4,0,0,1-1.17-.33,4.39,4.39,0,0,1-1.86-1.44C4.42,30.65,4.39,30.46,4.2,30.33Zm0-5c0,.31,0,.62,0,.94a3.08,3.08,0,0,0,.37,1.57A2.92,2.92,0,0,0,6,29.14a3.44,3.44,0,0,0,2.07.3,3,3,0,0,0,2.4-1.69A4.39,4.39,0,0,0,11,26.12a4.68,4.68,0,0,0-.63-3A2.76,2.76,0,0,0,9.11,22a3.65,3.65,0,0,0-4.29.88,1.94,1.94,0,0,0-.59,1.51A6.74,6.74,0,0,1,4.24,25.31Z" transform="translate(-0.39 -13.22)"/><path class="cls-1" d="M65.81,24.22a2.78,2.78,0,0,0-.75-2,3,3,0,0,0-1-.53A3.25,3.25,0,0,0,62,21.61a2.75,2.75,0,0,0-1.4.73,4.27,4.27,0,0,0-.66.86.44.44,0,0,1-.46.26,3.41,3.41,0,0,1-1.06-.09,1.73,1.73,0,0,1-1-.89,1.34,1.34,0,0,1,0-.45,3.25,3.25,0,0,1,.08-.88,2.55,2.55,0,0,1,1.15-1.43A5.77,5.77,0,0,1,61,18.79a14.56,14.56,0,0,1,3.3-.16,7.14,7.14,0,0,1,1.95.35,4.72,4.72,0,0,1,2.55,1.88,4.09,4.09,0,0,1,.23.47,5,5,0,0,1,.55,2.14c0,1.18,0,2.37,0,3.56v4.64a.58.58,0,0,1-.57.64,6,6,0,0,1-1.46.09,1.66,1.66,0,0,1-1.19-.73A2,2,0,0,1,66,30.53a1.48,1.48,0,0,0,0-.19c-.21,0-.23.22-.33.32a10.11,10.11,0,0,1-1,.91,4.64,4.64,0,0,1-2.74.91,12.05,12.05,0,0,1-1.59,0,3.41,3.41,0,0,1-1.15-.32,4.29,4.29,0,0,1-1.21-.77,3.1,3.1,0,0,1-1-1.77,7.32,7.32,0,0,1,0-1.87,2.61,2.61,0,0,1,.59-1.23,4.33,4.33,0,0,1,2-1.38,11.64,11.64,0,0,1,3.09-.69C63.61,24.35,64.68,24.23,65.81,24.22Zm0,2a12.48,12.48,0,0,0-4,.49,2.17,2.17,0,0,0-1,.64,1.57,1.57,0,0,0,.72,2.52,3.59,3.59,0,0,0,3-.41,2.69,2.69,0,0,0,1.23-1.93A7.12,7.12,0,0,0,65.79,26.19Z" transform="translate(-0.39 -13.22)"/><path class="cls-1" d="M20.16,28.55a2,2,0,0,0,.72.56,3.43,3.43,0,0,0,2.68.36,4.91,4.91,0,0,0,2.88-2.32,3.23,3.23,0,0,0,.4-2.42,2.31,2.31,0,0,1,1.05-.49,1.56,1.56,0,0,1,1.54.68A2.35,2.35,0,0,1,29.64,27a6.48,6.48,0,0,1-1.27,2.37,14.3,14.3,0,0,1-1.27,1.31,12.52,12.52,0,0,1-1,.76,8.07,8.07,0,0,1-1.58.86,6.16,6.16,0,0,1-1.42.36,5.57,5.57,0,0,1-1.63.07,5.22,5.22,0,0,1-1.55-.36,7.17,7.17,0,0,1-2.36-1.55,10,10,0,0,1-1.07-1.27,8.18,8.18,0,0,1-.85-1.6,6.68,6.68,0,0,1-.44-2.83c0-.33.07-.65.06-1a1.85,1.85,0,0,1,.19-.59,6.6,6.6,0,0,1,.85-1.8,7.8,7.8,0,0,1,2.06-2,6.47,6.47,0,0,1,1.73-.85,6.16,6.16,0,0,1,5,.52,6.88,6.88,0,0,1,1.69,1.36c.21.23.4.47.6.71a.73.73,0,0,1-.06,1.12c-.6.57-1.26,1.08-1.9,1.61L23.94,25.4l-1.71,1.39L20.77,28A2.73,2.73,0,0,0,20.16,28.55Zm3.68-5.83a6.27,6.27,0,0,0-.55-.51,3.48,3.48,0,0,0-1.23-.62,2.64,2.64,0,0,0-1.83.18,3.35,3.35,0,0,0-1.8,1.86,3.43,3.43,0,0,0,.38,3.24Z" transform="translate(-0.39 -13.22)"/><path class="cls-1" d="M34.56,20.81c.12-.13.21-.22.3-.33a4.57,4.57,0,0,1,1.47-1.26A5.59,5.59,0,0,1,40,18.7a4.31,4.31,0,0,1,1.71.63A3.82,3.82,0,0,1,43,20.62a6.71,6.71,0,0,1,.89,3.61v6.2a2.33,2.33,0,0,1-.22,1.1,1.51,1.51,0,0,1-1.43.79,6.86,6.86,0,0,1-1.11,0,1.25,1.25,0,0,1-.9-.67,2.27,2.27,0,0,1-.19-1.2c0-1.93,0-3.86,0-5.79a3.78,3.78,0,0,0-.5-1.79A2,2,0,0,0,38.4,22a3,3,0,0,0-1.51-.1,3.13,3.13,0,0,0-2,1.3,1.26,1.26,0,0,0-.25.83q0,3.21,0,6.44a4.11,4.11,0,0,1-.08.77,1.37,1.37,0,0,1-1.48,1.1c-.38,0-.77,0-1.15,0a.37.37,0,0,1-.15,0,1.4,1.4,0,0,1-.93-1.2c0-.41-.06-.82-.06-1.23V19.54c0-.52,0-.51.52-.66a3.1,3.1,0,0,1,1.76,0,1.93,1.93,0,0,1,1,.7,2,2,0,0,1,.44,1.07S34.51,20.72,34.56,20.81Z" transform="translate(-0.39 -13.22)"/><path class="cls-1" d="M47.75,21.9H46.6a1.15,1.15,0,0,1-1.07-1,7,7,0,0,1,0-1,1,1,0,0,1,.65-.87,1.74,1.74,0,0,1,.75-.15h.82c0-.42,0-.81,0-1.2a4.44,4.44,0,0,1,.17-1.49.91.91,0,0,1,.45-.58,2.69,2.69,0,0,1,2.65.07.55.55,0,0,1,.2.25,2.39,2.39,0,0,1,.34,1.28v1.66h2.16a2.49,2.49,0,0,1,.81.09,1.13,1.13,0,0,1,.85.87,3.49,3.49,0,0,1,0,1.07,1.23,1.23,0,0,1-.7.89,2.07,2.07,0,0,1-.87.11c-.63,0-1.26,0-1.89,0a1.15,1.15,0,0,0-.41,0c-.07.09,0,.21,0,.31,0,1.72,0,3.45,0,5.17a3.72,3.72,0,0,0,.27,1.47,1,1,0,0,0,.61.55,1.83,1.83,0,0,0,1.56-.18,2.11,2.11,0,0,0,.5-.44c.18-.21.26-.22.48-.07a1.52,1.52,0,0,1,.66,1.2,2,2,0,0,1-1,2,4.49,4.49,0,0,1-3.23.63c-.3,0-.61-.05-.91-.1a2.91,2.91,0,0,1-1.74-1.09,3.34,3.34,0,0,1-.77-1.73c-.33-2.44-.07-4.89-.16-7.33Z" transform="translate(-0.39 -13.22)"/><path class="cls-2" d="M67.78,32.72l0-.64c0-.47,0-.95,0-1.43a.69.69,0,1,1,1.38,0c0,.56,0,1.12,0,1.68a1.1,1.1,0,0,0,0,.44c.18,0,.24-.15.33-.24.25-.24.48-.5.74-.72a.67.67,0,0,1,.93,0,.68.68,0,0,1,0,1c-.27.31-.57.59-.86.89a1,1,0,0,0-.26.31.55.55,0,0,0,.37.06h1.31a1.42,1.42,0,0,1,.36,0,.7.7,0,0,1,.46.67.67.67,0,0,1-.5.62,1.57,1.57,0,0,1-.48.05H70.08c-.06.13,0,.18.1.25l.74.88a1.57,1.57,0,0,1,.19.26.66.66,0,0,1-.15.86.65.65,0,0,1-.86,0,4,4,0,0,1-.55-.61,1.85,1.85,0,0,0-.37-.37.52.52,0,0,0-.08.41c0,.41,0,.82,0,1.23,0,.09,0,.19,0,.29a.7.7,0,0,1-.69.71.68.68,0,0,1-.69-.75c0-.58,0-1.15,0-1.72,0-.14,0-.27,0-.4s-.18,0-.24.11c-.23.23-.45.48-.69.7a.72.72,0,0,1-1,0,.71.71,0,0,1,0-1c.13-.14.27-.27.41-.4l.38-.4c-.06-.17-.19-.13-.28-.13l-1.6,0a1.71,1.71,0,0,1-.45,0A.68.68,0,0,1,64.32,34a2.29,2.29,0,0,1,.37,0h2.14c.06-.12-.06-.17-.11-.23-.27-.33-.55-.65-.82-1-.06-.08-.13-.15-.18-.23a.68.68,0,0,1,1-.88c.28.3.54.62.8.93C67.61,32.64,67.65,32.72,67.78,32.72Z" transform="translate(-0.39 -13.22)"/></svg>