<svg xmlns="http://www.w3.org/2000/svg" viewBox="0 0 422.3 152.29"><defs><style>.cls-1{fill:#fff;}.cls-2{fill:#678482;}</style></defs><g id="Camada_2" data-name="Camada 2"><g id="Camada_1_Imagem" data-name="Camada 1 Imagem"><path class="cls-1" d="M22.3,100.09a37.17,37.17,0,0,0-.56,4.3,8,8,0,0,1-4.3,6.44,9,9,0,0,1-4.54.89c-2.07,0-4.15.11-6.21,0-2.47-.19-4.13-1.91-5.41-3.76a6.52,6.52,0,0,1-1.2-4.36c.2-2.3-.07-4.63-.07-7Q0,50.91,0,5.22V2.39C6.27-1,12.48-.78,17.45,3.08a12.44,12.44,0,0,1,4.06,6.83,35.71,35.71,0,0,1,1,9.23c-.05,7.87,0,15.74,0,23.63a1.51,1.51,0,0,0,1.24-.68,28,28,0,0,1,9.85-7.85,16.91,16.91,0,0,1,3.84-1.51c7.71-1.82,15.45-1.9,23,.88A32.86,32.86,0,0,1,74.54,43.85a39.25,39.25,0,0,1,7.33,14.7,49.72,49.72,0,0,1,1.47,17.54,46.7,46.7,0,0,1-1.27,8.47,44.68,44.68,0,0,1-7.55,15.89,33.69,33.69,0,0,1-10,8.68,30.06,30.06,0,0,1-14.33,4,59.67,59.67,0,0,1-8.35,0A24.9,24.9,0,0,1,35,111.18a25.44,25.44,0,0,1-10.86-8.43C23.57,102,23.41,100.85,22.3,100.09Zm.22-29.4c0,1.84.07,3.68,0,5.51a18.27,18.27,0,0,0,2.16,9.19,17.26,17.26,0,0,0,8.14,7.72,20.73,20.73,0,0,0,12.14,1.78A17.71,17.71,0,0,0,59,85a25.21,25.21,0,0,0,2.77-9.56c.59-6.21-.33-12.12-3.64-17.47A16.47,16.47,0,0,0,51,51.46c-7.85-3.54-18.8-2.53-25,5.16-2.05,2.52-3.95,5.17-3.45,8.8A40.26,40.26,0,0,1,22.52,70.69Z"/><path class="cls-1" d="M382.52,64.33c-.24-4.59-1.07-8.7-4.4-11.86a17.72,17.72,0,0,0-5.63-3.11c-4.12-1.7-8.36-1.35-12.38-.3-2.89.75-5.88,1.84-8.13,4.28a24.21,24.21,0,0,0-3.89,5,2.62,2.62,0,0,1-2.69,1.56c-2.08-.16-4.2.22-6.22-.54a10,10,0,0,1-6-5.23,7.22,7.22,0,0,1-.16-2.61,18.47,18.47,0,0,1,.49-5.13c.94-3.85,3.73-6.28,6.7-8.38a34,34,0,0,1,14.14-5.44,84.41,84.41,0,0,1,19.31-.93,40.57,40.57,0,0,1,11.39,2c6,2.15,11.41,5.39,14.93,11a30.07,30.07,0,0,1,1.37,2.72,29.65,29.65,0,0,1,3.2,12.49c.14,6.95.13,13.91.15,20.86q0,13.54,0,27.1a3.37,3.37,0,0,1-3.29,3.77,38.29,38.29,0,0,1-8.54.53,9.71,9.71,0,0,1-7-4.3,11.69,11.69,0,0,1-2.47-6.64,7.19,7.19,0,0,0-.2-1.11c-1.2.2-1.3,1.26-1.88,1.85a67.1,67.1,0,0,1-6.08,5.32,26,26,0,0,1-7,3.72,27.42,27.42,0,0,1-9,1.63,84.86,84.86,0,0,1-9.3,0,20.46,20.46,0,0,1-6.72-1.89,25.49,25.49,0,0,1-7.11-4.53,18.22,18.22,0,0,1-5.79-10.31,42.69,42.69,0,0,1,0-11c.29-2.64,1.81-5,3.48-7.18a25.51,25.51,0,0,1,11.51-8.1,68.43,68.43,0,0,1,18.1-4C369.65,65.09,375.91,64.41,382.52,64.33Zm-.12,11.55a72.62,72.62,0,0,0-23.13,2.84,12.55,12.55,0,0,0-6,3.77c-3.54,4.21-3.13,12.79,4.19,14.74,6.13,1.63,12.12,1.19,17.65-2.42a15.66,15.66,0,0,0,7.21-11.28A38.17,38.17,0,0,0,382.4,75.88Z"/><path class="cls-1" d="M115.6,89.66a12,12,0,0,0,4.21,3.28c4.93,2.54,10,3.78,15.66,2.07a28.55,28.55,0,0,0,16.88-13.57,18.69,18.69,0,0,0,2.3-14.13,14.1,14.1,0,0,1,6.17-2.87c3.34-.74,7.07,1.17,9,4,2.62,3.85,2.36,7.95,1.22,12.07a37.49,37.49,0,0,1-7.45,13.86,90.55,90.55,0,0,1-7.4,7.64,72.86,72.86,0,0,1-5.85,4.42,47.39,47.39,0,0,1-9.25,5c-2.56,1.19-5.47,1.57-8.27,2.13a33.06,33.06,0,0,1-9.52.39,30.94,30.94,0,0,1-9.09-2.08,42.35,42.35,0,0,1-13.78-9.09,55.82,55.82,0,0,1-6.29-7.42A50.48,50.48,0,0,1,89.18,86c-2.29-5.32-2.69-10.88-2.58-16.53,0-1.91.4-3.79.37-5.72,0-1.16.71-2.33,1.08-3.48a40.15,40.15,0,0,1,5-10.52,45.32,45.32,0,0,1,12.06-11.85,36.74,36.74,0,0,1,10.12-5c5.72-1.67,11.64-2.44,17.65-1.19A36.56,36.56,0,0,1,144.3,36a40.29,40.29,0,0,1,9.92,7.92c1.2,1.36,2.29,2.79,3.47,4.15,1.95,2.27,1.86,4.57-.31,6.6C153.84,58,150,60.92,146.27,64c-2.85,2.39-5.69,4.82-8.56,7.19-3.31,2.74-6.68,5.42-10,8.16-2.87,2.38-5.71,4.79-8.56,7.19C118,87.55,116.58,88.18,115.6,89.66Zm21.51-34.11c-1.14-1.07-2.1-2.12-3.21-3a20.12,20.12,0,0,0-7.21-3.6A15.3,15.3,0,0,0,116,50a19.61,19.61,0,0,0-10.52,10.84c-2.53,6.48-1.69,12.82,2.25,18.93Z"/><path class="cls-1" d="M199.84,44.37c.66-.73,1.22-1.28,1.69-1.9a27,27,0,0,1,8.65-7.38c6.81-3.78,14-4.11,21.48-3a25.2,25.2,0,0,1,10,3.66,22.81,22.81,0,0,1,7.38,7.56c3.93,6.52,5.26,13.64,5.24,21.13,0,12.07,0,24.14,0,36.22a13.16,13.16,0,0,1-1.31,6.43c-1.81,3.32-4.72,4.64-8.36,4.67a41.91,41.91,0,0,1-6.44,0,7.35,7.35,0,0,1-5.31-3.88c-1.27-2.24-1.07-4.67-1.07-7.06,0-11.27-.1-22.55,0-33.82a21.72,21.72,0,0,0-2.89-10.46,11.77,11.77,0,0,0-6.69-5.24,17.34,17.34,0,0,0-8.83-.54c-5,.82-8.78,3.62-11.8,7.56a7.47,7.47,0,0,0-1.45,4.85c.07,12.55,0,25.11,0,37.66a24.33,24.33,0,0,1-.45,4.49c-.51,2.81-2.44,4.44-4.53,5.77-1.09.69-2.73.62-4.14.69-2.22.11-4.46.06-6.69,0a2.2,2.2,0,0,1-.92-.19c-3-1.42-5.2-3.36-5.44-7-.15-2.39-.32-4.78-.32-7.18q0-30.21,0-60.44c0-3,0-3,3-3.83a18,18,0,0,1,10.29,0,11.16,11.16,0,0,1,5.64,4.14,11.62,11.62,0,0,1,2.57,6.25C199.26,43.69,199.49,43.87,199.84,44.37Z"/><path class="cls-1" d="M276.93,50.77c-2.41,0-4.56,0-6.7,0A6.71,6.71,0,0,1,264,45a41.16,41.16,0,0,1,0-6c.16-2.56,1.66-4,3.78-5a10.06,10.06,0,0,1,4.38-.93c1.51,0,3,0,4.82,0,0-2.4.08-4.69,0-7a25.69,25.69,0,0,1,1-8.73A5.24,5.24,0,0,1,280.56,14c5.22-2.5,10.39-2.6,15.49.4a3.33,3.33,0,0,1,1.18,1.43,14.37,14.37,0,0,1,2,7.49c0,3.18,0,6.36,0,9.74h12.63a14.17,14.17,0,0,1,4.71.49c2.54.87,4.49,2.32,5,5.12a19.9,19.9,0,0,1,0,6.21c-.35,2.55-2.16,4.17-4.1,5.24-1.39.77-3.37.59-5.1.63-3.67.08-7.35,0-11,0a6.69,6.69,0,0,0-2.39.15c-.45.56-.24,1.22-.24,1.82,0,10.07-.06,20.14,0,30.21a21.87,21.87,0,0,0,1.53,8.62,5.71,5.71,0,0,0,3.62,3.2,10.55,10.55,0,0,0,9.07-1,11.4,11.4,0,0,0,3-2.58c1-1.22,1.5-1.28,2.79-.41a9.14,9.14,0,0,1,3.88,7c.54,5-1.91,8.64-5.83,11.48-5.73,4.15-12.28,4.22-18.89,3.68-1.75-.14-3.54-.35-5.31-.63-4.36-.7-7.51-3.31-10.17-6.37a19.21,19.21,0,0,1-4.48-10.13c-2-14.25-.45-28.56-.95-42.83C276.91,52.37,276.93,51.74,276.93,50.77Z"/></g><g id="Camada_3_Imagem" data-name="Camada 3 Imagem"><path class="cls-2" d="M394.07,113.61c.05-1.23.12-2.47.15-3.71.07-2.8.08-5.6.2-8.39.12-2.58,1.71-4.2,4-4.23a4,4,0,0,1,4,4.15c.08,3.28-.11,6.56-.16,9.83a6.59,6.59,0,0,0,.14,2.57c1-.1,1.4-.89,1.95-1.41,1.44-1.38,2.78-2.88,4.28-4.18a4,4,0,0,1,5.57,5.63c-1.58,1.8-3.34,3.44-5,5.16a6.31,6.31,0,0,0-1.55,1.82,3.28,3.28,0,0,0,2.17.38c2.56,0,5.12,0,7.67.07a5.94,5.94,0,0,1,2.13.29,4,4,0,0,1,2.67,3.87,3.9,3.9,0,0,1-2.91,3.67,9.2,9.2,0,0,1-2.86.26h-9c-.37.78.26,1.09.58,1.48,1.42,1.73,2.89,3.41,4.32,5.13a9.45,9.45,0,0,1,1.13,1.55,3.95,3.95,0,0,1-5.93,5,27.74,27.74,0,0,1-3.21-3.55,10.25,10.25,0,0,0-2.16-2.21,3.39,3.39,0,0,0-.49,2.42c-.05,2.4-.06,4.79-.08,7.19,0,.56,0,1.12-.05,1.68-.23,2.56-1.81,4.2-4.05,4.2s-4-1.75-4-4.42c0-3.36.09-6.72.14-10.07,0-.79,0-1.59,0-2.35-.83-.32-1.07.35-1.43.7-1.36,1.34-2.66,2.76-4,4.09-1.87,1.8-4.37,1.87-6,.25s-1.58-4.06.22-6c.77-.82,1.6-1.57,2.39-2.37s1.53-1.57,2.24-2.3c-.36-1-1.1-.76-1.67-.77-3.12-.06-6.24-.07-9.35-.1a9.27,9.27,0,0,1-2.62-.27,3.92,3.92,0,0,1-3-4.06,4,4,0,0,1,3.46-3.72,14.14,14.14,0,0,1,2.16-.07c4.15,0,8.3,0,12.49,0,.33-.67-.32-1-.63-1.34-1.58-1.91-3.2-3.79-4.8-5.68-.36-.43-.74-.85-1.05-1.3-1.4-2-1.21-4.16.47-5.61a4,4,0,0,1,5.6.44c1.65,1.73,3.14,3.62,4.71,5.43C393.08,113.12,393.28,113.59,394.07,113.61Z"/></g></g></svg>